<?xml version="1.0" encoding="UTF-8" standalone="no"?>
<!-- Created with Inkscape (http://www.inkscape.org/) -->

<svg
   width="3.5in"
   height="3.5in"
   viewBox="0 0 1050 1050"
   version="1.1"
   id="svg5"
   inkscape:version="1.1.1 (3bf5ae0d25, 2021-09-20)"
   sodipodi:docname="lemon_card_oshawott.svg"
   xmlns:inkscape="http://www.inkscape.org/namespaces/inkscape"
   xmlns:sodipodi="http://sodipodi.sourceforge.net/DTD/sodipodi-0.dtd"
   xmlns="http://www.w3.org/2000/svg"
   xmlns:svg="http://www.w3.org/2000/svg">
  <sodipodi:namedview
     id="namedview7"
     pagecolor="#505050"
     bordercolor="#ffffff"
     borderopacity="1"
     inkscape:pageshadow="0"
     inkscape:pageopacity="0"
     inkscape:pagecheckerboard="1"
     inkscape:document-units="in"
     showgrid="true"
     units="in"
     width="3.5in"
     scale-x="100"
     inkscape:object-paths="false"
     inkscape:snap-bbox="false"
     inkscape:snap-smooth-nodes="false"
     inkscape:object-nodes="false"
     inkscape:snap-object-midpoints="true"
     inkscape:snap-center="false"
     inkscape:zoom="2"
     inkscape:rotation="90"
     inkscape:cx="148.25"
     inkscape:cy="229.25"
     inkscape:window-width="1920"
     inkscape:window-height="1017"
     inkscape:window-x="-8"
     inkscape:window-y="-8"
     inkscape:window-maximized="1"
     inkscape:current-layer="layer1">
    <inkscape:grid
       type="xygrid"
       id="grid824"
       units="in"
       spacingx="5"
       spacingy="5" />
  </sodipodi:namedview>
  <defs
     id="defs2">
    <inkscape:path-effect
       effect="bspline"
       id="path-effect8894"
       is_visible="true"
       lpeversion="1"
       weight="33.333333"
       steps="2"
       helper_size="0"
       apply_no_weight="true"
       apply_with_weight="true"
       only_selected="false" />
    <inkscape:path-effect
       effect="bspline"
       id="path-effect8325"
       is_visible="true"
       lpeversion="1"
       weight="33.333333"
       steps="2"
       helper_size="0"
       apply_no_weight="true"
       apply_with_weight="true"
       only_selected="false" />
    <inkscape:path-effect
       effect="bspline"
       id="path-effect7663"
       is_visible="true"
       lpeversion="1"
       weight="33.333333"
       steps="2"
       helper_size="0"
       apply_no_weight="true"
       apply_with_weight="true"
       only_selected="false" />
    <inkscape:path-effect
       effect="bspline"
       id="path-effect7187"
       is_visible="true"
       lpeversion="1"
       weight="33.333333"
       steps="2"
       helper_size="0"
       apply_no_weight="true"
       apply_with_weight="true"
       only_selected="false" />
    <inkscape:path-effect
       effect="bspline"
       id="path-effect7146"
       is_visible="true"
       lpeversion="1"
       weight="33.333333"
       steps="2"
       helper_size="0"
       apply_no_weight="true"
       apply_with_weight="true"
       only_selected="false" />
    <inkscape:path-effect
       effect="bspline"
       id="path-effect6224"
       is_visible="true"
       lpeversion="1"
       weight="33.333333"
       steps="2"
       helper_size="0"
       apply_no_weight="true"
       apply_with_weight="true"
       only_selected="false" />
  </defs>
  <g
     inkscape:label="card"
     inkscape:groupmode="layer"
     id="layer1">
    <rect
       style="fill:#ffffff;stroke:#999999;stroke-width:2.95699;stroke-miterlimit:4;stroke-dasharray:none;stroke-opacity:1"
       id="rect870"
       width="675.04303"
       height="1020.043"
       x="187.4785"
       y="14.978495"
       rx="30.001911"
       ry="29.144087" />
    <rect
       style="fill:#e5aa00;fill-opacity:1;stroke:#997d0f;stroke-width:2.95574;stroke-miterlimit:4;stroke-dasharray:none;stroke-opacity:1"
       id="rect1292"
       width="525.04425"
       height="990.04425"
       x="322.47787"
       y="29.977871"
       rx="15.001265"
       ry="14.559474" />
    <g
       id="g1008"
       transform="matrix(0,-0.25,0.25,0,586.75807,-207.94083)">
      <path
         inkscape:connector-curvature="0"
         id="path3101"
         d="m -1577.172,895.20505 c 35.1276,-8.3781 57.8661,-23.5506 61.198,-40.8349 5.3778,-27.8981 -26.1754,-67.7913 -91.9215,-116.2179 -9.9916,-7.3596 -19.073,-13.381 -20.1808,-13.381 -1.1078,0 -2.0156,-0.5892 -2.0173,-1.3093 0,-0.7202 -3.6343,-3.5419 -8.0724,-6.2705 -4.5851,-2.8191 -8.0691,-6.2904 -8.0691,-8.0397 0,-2.7481 2.8398,-3.2057 26.4593,-4.2641 148.7029,-6.6632 312.5431,-44.2287 415.724,-95.3176 69.5093,-34.4168 83.8494,-54.2984 64.255,-89.0845 -21.9588,-38.9834 -91.3317,-92.1964 -150.3597,-115.33435 -14.7872,-5.79634 -32.215,-5.46209 -52.9185,1.01491 -47.3367,14.80913 -118.931,48.82134 -180.7531,85.87004 -7.1656,4.2942 -14.0091,7.4896 -15.2077,7.1007 -1.5686,-0.5088 -2.2746,-8.497 -2.5195,-28.5066 -0.3169,-25.8933 -3.9946,-62.99148 -8.0186,-80.8882 -1.1186,-4.97478 -1.1134,-8.29978 0.014,-9.39755 1.1316,-1.10131 9.8327,-0.10893 24.7373,2.82131 78.0383,15.34236 128.3921,12.22985 153.7638,-9.50458 29.9757,-25.67842 17.7682,-67.35854 -34.7377,-118.60536 -25.5475,-24.93478 -68.2737,-56.07278 -101.8627,-74.23554 -7.5275,-4.07042 -9.4162,-5.98425 -9.4177,-9.54317 -10e-4,-2.44844 0.7549,-5.19801 1.6798,-6.11017 3.1676,-3.12401 12.6392,-28.35079 15.3456,-40.8718 6.9873,-32.325989 -1.3242,-64.699989 -22.565,-87.892869 -4.8471,-5.29256 -8.7974,-11.06814 -8.7783,-12.83461 0.019,-1.76646 6.6808,-10.28208 14.8041,-18.9236102 32.2551,-34.3131898 52.4728,-63.0852798 72.3766,-102.9999998 28.9698,-58.095861 40.8855,-109.052631 40.8226,-174.576291 -0.038,-39.64325 -3.0337,-64.36049 -11.7039,-96.57081 -7.9716,-29.61469 -7.9186,-28.41389 -1.8821,-42.59119 21.1226,-49.60847 33.6793,-127.0247 24.7783,-152.76601 -10.0972,-29.20092 -60.408,-47.41196 -134.2756,-48.60387 l -33.613,-0.54235 -14.8209,-11.22974 c -51.963,-39.37249 -117.9752,-70.45013 -184.2098,-86.72358 -90.0399,-22.12226 -193.432,-19.7949 -281.5582,6.33787 -78.7898,23.3642 -147.2058,62.96351 -208.5462,120.70679 -15.4734,14.56612 -15.5307,14.5995 -30.4953,17.78459 -44.6032,9.49335 -89.8337,28.54413 -107.1462,45.12915 -11.2889,10.81462 -14.4329,18.30085 -18.0878,43.06915 -5.0921,34.50869 1.6423,90.17434 16.317,134.8733 5.2299,15.9301 5.2765,16.41738 3.2558,34.04238 -1.1276,9.8345 -1.9968,30.68048 -1.9316,46.32438 0.393,94.34473 31.1766,180.863391 89.5343,251.639581 16.9689,20.5799798 45.6546,48.09182 65.6456,62.95936 8.3918,6.24111 15.3016,12.26914 15.3551,13.39563 0.053,1.12647 -3.0734,7.80401 -6.9487,14.83898 -11.6514,21.151469 -15.3088,41.958599 -12.083,68.741139 l 1.4823,12.30623 -13.1513,8.47162 c -53.3788,34.38484 -106.0708,91.94168 -119.8483,130.91334 -15.9474,45.10944 6.7469,68.46342 69.9232,71.95564 17.1303,0.94692 41.2392,-1.23154 65.1634,-5.8881 l 5.3256,-1.0366 -1.014,7.68921 c -0.5578,4.22906 -3.2261,19.47309 -5.9295,33.87563 -4.4041,23.46279 -4.9257,30.36272 -5.0152,66.33902 -0.1093,43.9059 1.677,58.697 11.385,94.2712 11.9475,43.7807 31.5142,79.8777 60.8765,112.3058 6.9937,7.724 12.7104,15.0748 12.7037,16.335 -0.01,1.2603 -3.0118,4.2553 -6.6777,6.6558 -38.4335,25.1655 -87.1243,67.8298 -107.6506,94.3268 -10.1929,13.1578 -16.9093,27.9815 -16.9093,37.3207 0,28.5785 46.1062,48.7221 116.899,51.0727 34.9045,1.159 57.863,-1.8276 72.1263,-9.3826 10.8734,-5.7594 31.8544,-26.9525 43.3179,-43.7556 8.9723,-13.1517 24.3701,-41.4337 31.4657,-57.7952 l 4.0727,-9.3912 8.3711,1.0543 c 4.604,0.5798 18.4614,2.646 30.7941,4.5913 50.3542,7.943 108.7067,7.9049 165.5752,-0.108 14.6036,-2.0577 26.8856,-3.4166 27.2933,-3.0199 0.4077,0.3968 3.587,10.3432 7.0651,22.1032 17.3245,58.5766 40.087,89.5185 75.3598,102.4393 20.4285,7.4831 36.3807,9.4316 72.7129,8.8816 28.8614,-0.4369 35.7576,-1.1157 52.9184,-5.2087 z"
         style="fill:#000000" />
      <path
         inkscape:connector-curvature="0"
         id="path3097"
         d="m -1655.9327,876.24581 c -2.0893,-3.6006 -12.6798,-19.0038 -23.5344,-34.2292 -19.7219,-27.6633 -22.636,-34.3879 -15.4777,-35.7157 6.3858,-1.1846 36.1411,33.2727 54.0884,62.6355 l 8.6494,14.1509 10.9994,-1.1207 c 14.557,-1.4832 40.7922,-6.0896 43.6989,-7.6726 4.8356,-2.6336 -21.0261,-37.3812 -50.4854,-67.8316 -14.3202,-14.8021 -16.4391,-20.0379 -8.5515,-21.1309 11.7575,-1.6291 58.3991,47.0603 74.6009,77.8764 l 3.012,5.7291 5.5979,-3.1104 c 3.0788,-1.7108 8.2918,-5.6898 11.5845,-8.8424 6.8657,-6.5735 7.8208,-14.0836 3.357,-26.3962 -8.8249,-24.342 -54.2509,-67.7617 -105.0011,-100.3637 -26.1076,-16.7715 -22.5548,-16.1869 -39.201,-6.4505 -17.0677,9.983 -46.66,22.3394 -69.3267,28.9475 -8.8795,2.5888 -17.2243,5.0269 -18.5439,5.4182 -3.1833,0.9439 -1.5436,10.5164 5.5032,32.1275 12.8732,39.48 32.6048,68.9657 53.03,79.2448 7.8421,3.9467 31.2082,9.9038 44.9919,11.4706 6.5376,0.7431 12.5436,1.4544 13.3467,1.5806 0.8031,0.1262 -0.2493,-2.7166 -2.3385,-6.3172 z"
         style="fill:#162d50" />
      <path
         inkscape:connector-curvature="0"
         id="path3093"
         d="m -2177.3136,860.50425 c 7.0307,-12.1024 25.8551,-36.9404 35.1422,-46.3686 13.3047,-13.5069 24.4544,-17.7928 24.4544,-9.4002 0,1.7931 -3.9439,8.0426 -8.7642,13.8879 -9.5512,11.582 -36.082,48.3601 -36.082,50.0184 0,1.606 19.5027,1.1871 31.1492,-0.6691 14.7575,-2.352 23.9359,-7.1783 35.7565,-18.802 17.258,-16.9705 37.9843,-49.5718 50.8631,-80.0048 l 3.7457,-8.8511 -14.5657,-4.8549 c -29.0681,-9.6887 -66.8955,-29.1231 -87.6282,-45.0202 -6.1623,-4.7251 -5.458,-5.0774 -40.1019,20.0621 -17.1038,12.4113 -35.916,28.2622 -52.1489,43.9398 -34.8484,33.6563 -47.4052,53.4854 -41.2152,65.085 2.7279,5.1118 9.1005,10.2861 18.484,15.0084 l 5.691,2.864 8.5463,-11.7588 c 28.066,-38.6159 63.7153,-71.4635 73.5664,-67.7846 6.2322,2.3275 3.8912,6.4002 -13.2618,23.0713 -23.1408,22.4907 -52.5706,58.7115 -49.8529,61.3564 1.673,1.6281 34.218,7.0481 43.445,7.2352 7.1707,0.1454 7.654,-0.1955 12.777,-9.0142 z"
         style="fill:#162d50" />
      <path
         id="path3089"
         d="m -1602.9688,24.875 c -15.8489,-0.009 -26.9338,2.90949 -41.9374,10.65625 -12.2826,6.34176 -32.2768,26.15936 -40.4688,40.09375 -3.1439,5.3477 -6.9141,10.69511 -8.375,11.875 -4.3091,3.48037 -10.615,0.64437 -16.625,-7.5 -3.0916,-4.18966 -9.8895,-10.79545 -15.125,-14.6875 -42.2348,-31.39739 -93.2173,-27.89228 -131.6875,9.09375 -17.0221,16.36539 -27.174,34.08568 -32.125,56.125 -5.0704,22.57082 -3.9343,21.41564 -20.0937,21.3125 -16.3567,-0.1044 -27.373,2.41078 -36.25,8.28125 -10.9585,7.24687 -14.8139,5.38874 -18.0626,-8.71875 -2.958,-12.84541 -13.7178,-38.80918 -20.7812,-50.125 -18.6606,-29.895378 -53.735,-49.34015 -83.5,-46.3125 -30.1789,3.06977 -51.2281,20.585142 -61.5312,51.21875 -1.9338,5.74978 -4.3413,9.4798 -6.5313,10.15625 -3.9445,1.21838 -23.5251,-7.8451 -49.4063,-22.875 -9.2024,-5.34406 -17.5851,-9.21915 -18.625,-8.59375 -3.9313,2.36462 -12.4021,21.7026 -15.125,34.53125 -3.4863,16.42574 -3.5112,23.18574 -0.125,38.8125 5.3844,24.84772 20.5595,46.1192 43.6876,61.21875 l 11.5624,7.53125 8.125,-6.96875 c 8.4273,-7.21923 14.9968,-8.44438 16.0626,-3 0.3161,1.61471 -3.942,9.87668 -9.4688,18.34375 -33.3451,51.08402 -57.6119,114.48566 -69.375,181.3125 -3.3597,19.08651 -3.9854,29.34085 -4.0312,65.40625 -0.047,36.7729 0.5227,45.72935 3.9374,63.90625 18.9563,100.9073 81.7731,171.96085 179.7813,203.28125 31.2363,9.9821 59.6385,15.2412 106.7187,19.8125 15.215,1.4773 85.2436,-0.7076 104.0313,-3.25 137.7965,-18.6465 220.8556,-78.1022 256.1875,-183.375 11.0672,-32.9753 14.6535,-58.0213 14.5938,-102.125 -0.05,-36.61466 -1.9013,-55.25263 -8.5,-86.21875 l -2.1563,-10.25 -24.2187,-8.1875 c -31.8552,-10.77744 -44.0334,-17.05749 -58.25,-30 -13.2443,-12.05718 -23.8505,-30.5055 -28.9688,-50.40625 -4.1284,-16.05159 -2.5927,-53.58662 2.9062,-70.6875 9.4676,-29.44298 28.1986,-54.55519 47.6563,-63.875 7.5844,-3.63274 11.375,-4.22112 26.7813,-4.1875 19.2319,0.0419 32.7762,3.16352 57,13.15625 l 12.1874,5.03125 3.5313,-5.625 c 13.6868,-21.71804 19.819,-58.15386 13.5937,-80.90625 -6.5482,-23.93387 -24.8343,-44.91573 -48.75,-55.96875 -12.0893,-5.58731 -15.7494,-6.4357 -31.125,-7.15625 -2.4832,-0.11637 -4.8608,-0.154958 -7.125,-0.15625 z m -326.125,310 c 46.4063,-0.0119 85.7768,12.25382 120.7188,37.5625 34.9852,25.33994 63.1424,65.24578 72.625,102.875 4.7718,18.9358 4.0267,25.38545 -4.2188,35.90625 -15.3562,19.5937 -60.6542,42.25235 -103.875,51.96875 -16.8615,3.7906 -17.5,4.097 -17.5,8.6875 0,2.6189 0.8796,7.2718 1.9688,10.3125 5.5071,15.374 -7.3497,25.2135 -38.75,29.6875 -30.5393,4.3513 -75.6273,3.25745 -98.3438,-2.40625 -24.2351,-6.0423 -27.2452,-14.28445 -15.4687,-42.09375 3.082,-7.2779 1.5205,-10.28865 -7.625,-14.78125 -16.1689,-7.9425 -48.4358,-30.2433 -60.3125,-41.6875 -16.1391,-15.5515 -20.9001,-24.9227 -19.4688,-38.25 2.1247,-19.783 12.7389,-45.88253 27.6876,-68.15625 8.5691,-12.76823 32.6065,-36.08382 46.0312,-44.625 25.3811,-16.14818 51.5109,-23.6051 87.125,-24.84375 3.157,-0.1098 6.3125,-0.15546 9.4062,-0.15625 z"
         style="fill:#008080"
         inkscape:connector-curvature="0" />
      <path
         inkscape:connector-curvature="0"
         id="path3081"
         d="m -1908.5695,601.60327 c 18.7111,-1.9187 34.3793,-6.4705 37.1099,-10.7809 1.3897,-2.1935 0.1708,-8.1029 -4.861,-23.5678 -8.7047,-26.7533 -11.9371,-46.0202 -13.1282,-78.2503 -1.6381,-44.3267 5.7499,-81.1622 23.1978,-115.6605 4.0074,-7.9234 6.7856,-14.8933 6.1739,-15.4886 -0.6117,-0.5953 -8.4622,-2.9403 -17.4456,-5.211 -38.6195,-9.7619 -81.8933,-8.6878 -113.4888,2.8167 l -9.7091,3.5353 -3.8894,13.8113 c -15.3988,54.6828 -12.9919,138.3554 4.9653,172.6108 5.0571,9.6469 4.7948,12.6674 -2.5433,29.2944 -3.4653,7.8517 -5.8165,15.5032 -5.225,17.0033 3.4727,8.8072 57.0815,14.1697 98.8435,9.8873 z"
         style="fill:#ffeeaa" />
      <path
         inkscape:connector-curvature="0"
         id="path3077"
         d="m -1830.2276,548.09917 c 35.496,-10.8255 60.9276,-23.653 76.0609,-38.3646 8.3521,-8.1192 9.4177,-9.979 9.4177,-16.4365 0,-31.1158 -29.9377,-80.7227 -65.0653,-107.8135 -13.2063,-10.1849 -31.0085,-20.2402 -33.3453,-18.8346 -3.1589,1.8999 -16.0901,29.9146 -20.6182,44.6679 -7.4828,24.3801 -8.9954,35.8671 -8.9653,68.0847 0.027,29.3659 2.3645,49.6474 7.9198,68.7276 l 1.9662,6.7531 9.0039,-1.1624 c 4.9521,-0.6393 15.5836,-3.1691 23.6256,-5.6217 z"
         style="fill:#ffeeaa" />
      <path
         inkscape:connector-curvature="0"
         id="path3073"
         d="m -2021.2032,535.70337 c -11.7969,-29.6999 -13.5995,-102.2499 -3.7087,-149.2627 1.7675,-8.4014 2.645,-15.2754 1.95,-15.2754 -2.9078,0 -29.3476,25.8015 -36.503,35.6217 -13.4953,18.5212 -23.6339,41.6533 -27.8658,63.5777 -1.4724,7.6282 -1.268,10.286 1.1414,14.839 5.0902,9.619 11.4901,16.6842 23.6262,26.0824 9.3184,7.2161 41.0176,28.7642 42.8627,29.1366 0.2222,0.045 -0.454,-2.0788 -1.5028,-4.7193 z"
         style="fill:#ffeeaa" />
      <path
         inkscape:connector-curvature="0"
         id="path3069"
         d="m -1569.0996,690.5565 c 156.353,-13.9732 320.9095,-60.3293 397.9112,-112.0929 25.1878,-16.9323 28.9749,-26.8023 17.9841,-46.8706 -18.5644,-33.8967 -84.93,-85.8157 -135.1583,-105.73663 -16.8131,-6.66821 -25.2685,-7.13178 -44.1884,-2.42258 -42.72,10.63305 -133.7687,54.03741 -196.6356,93.73931 -10.8457,6.8494 -14.7992,10.3326 -14.7992,13.039 0,2.0311 -1.6296,11.475 -3.6213,20.9866 -10.6458,50.8397 -35.6384,99.4089 -68.9728,134.038 l -9.0259,9.3765 18.8354,-1.1867 c 10.3594,-0.6527 27.3113,-1.9442 37.6708,-2.87 z"
         style="fill:#162d50" />
      <path
         inkscape:connector-curvature="0"
         id="path3065"
         d="m -1395.7403,376.4996 c 29.9641,-9.9145 36.9934,-28.22573 21.9508,-57.18181 -8.5425,-16.44393 -20.8192,-31.69556 -41.4613,-51.50852 -33.7085,-32.35449 -71.3728,-58.36457 -114.534,-79.09449 -30.3717,-14.58723 -50.9483,-20.68385 -70.1903,-20.79659 -11.8932,-0.0697 -13.4671,0.38082 -22.5133,6.44413 -22.1447,14.84288 -37.0172,46.25573 -38.6534,81.64196 -1.4211,30.73288 6.9287,54.58389 25.403,72.56301 14.7206,14.32599 36.2516,23.73546 81.737,35.7207 51.6558,13.61107 78.5143,17.43425 117.497,16.72512 24.2598,-0.44131 30.5684,-1.1398 40.7645,-4.51351 z"
         style="fill:#ffffff" />
      <path
         inkscape:connector-curvature="0"
         id="path3061"
         d="m -2250.1642,354.64684 c 6.9063,-0.93461 17.9669,-2.95839 24.579,-4.49728 l 12.0222,-2.798 7.3455,-21.68665 c 9.1606,-27.04574 20.6266,-53.8101 32.2861,-75.36394 4.9362,-9.1251 8.9749,-17.15206 8.9749,-17.83769 0,-0.68565 -4.7791,-4.11738 -10.6202,-7.62607 -14.1115,-8.47666 -30.1301,-24.46777 -38.557,-38.49084 -8.0818,-13.44883 -5.968,-13.81546 -31.9951,5.54924 -46.6542,34.71165 -87.2052,81.23999 -98.056,112.50983 -4.9148,14.16334 -4.9783,29.0628 -0.1494,35.03724 4.6696,5.77734 16.5208,11.28206 30.7678,14.29126 13.4573,2.84242 45.7121,3.30685 63.4022,0.9129 z"
         style="fill:#ffffff" />
      <path
         id="path3057"
         d="m -1889.2812,-706.71875 c -54.5326,0.0837 -77.2353,2.60604 -124.125,13.8125 -170.0564,40.64279 -304.3479,168.15976 -345.75,328.28125 -10.3178,39.90387 -12.3567,56.40008 -12.4688,101.25 -0.1181,47.245 2.7624,69.53209 14.3438,110.65625 28.1237,99.864578 94.8467,180.86486 194.0312,235.5625 18.2936,10.08849 18.9938,10.16523 21.6562,3 4.4646,-12.01583 16.4979,-27.00704 28.1876,-35.125 40.6939,-28.2603 96.5398,-18.98156 131.0624,21.75 11.1553,13.16153 23.622,35.88078 29.4063,53.5625 l 4.0313,12.3125 9.1874,-3.09375 c 5.0487,-1.69826 14.1962,-3.12491 20.3438,-3.15625 10.7144,-0.0546 11.2369,-0.24173 12.2812,-4.84375 14.0342,-61.843882 62.8923,-103.26537 122,-103.40625 26.8134,-0.0639 53.8911,10.43047 73.9688,28.6875 9.4429,8.58655 11.6938,9.92791 13,7.65625 5.0454,-8.77392 19.5728,-25.36466 28.2188,-32.21875 32.999,-26.1603899 79.0021,-31.6091199 115.4062,-13.65625 l 8.4375,4.1875 13.6563,-14.125 c 56.1608,-58.09911 92.2718,-124.78285 106.7187,-197.03125 6.3862,-31.93716 7.7623,-49.36657 6.7813,-86 -0.9381,-35.02492 -2.8183,-49.80487 -10.5,-82.03125 -3.5805,-15.02053 -3.7255,-15.22917 -7.5,-12.65625 -4.9245,3.35672 -17.4587,3.35874 -25.7188,0 -18.6833,-7.59716 -50.4328,-36.26595 -72.6562,-65.59375 -31.4492,-41.50245 -57.5048,-100.41454 -60.1876,-136.125 -1.1501,-15.3105 1.5621,-22.47296 10.5313,-27.78125 l 5.5,-3.25 -14.125,-10.15625 c -53.9528,-38.83255 -118.9999,-66.76563 -188.0937,-80.78125 -42.2464,-8.56963 -55.4895,-9.76748 -107.625,-9.6875 z M -1704.3125,-370.5 c 27.1471,-0.50335 54.2043,18.73806 69.6563,50.75 9.2364,19.13524 12.3452,32.09748 12.2812,51.15625 -0.1167,34.7881 -17.4123,65.96558 -42.5938,76.84375 -11.0005,4.75211 -18.7486,5.84683 -30.5937,4.25 -11.8939,-1.60342 -20.834,-5.42874 -31.0625,-13.28125 -17.1778,-13.18747 -29.0123,-30.58203 -36.625,-53.84375 -5.7987,-17.71891 -5.7298,-49.19747 0.1562,-65.9375 8.6401,-24.57234 27.4339,-43.8882 47.1876,-48.5 3.8483,-0.89844 7.7156,-1.36559 11.5937,-1.4375 z m -512.4687,62.75 c 10.9684,0.0163 20.1778,3.93388 29.8437,12.53125 33.999,30.24024 32.6969,98.53889 -2.625,136.09375 -5.3797,5.71984 -13.3413,11.83506 -18.6875,14.375 -20.6652,9.81786 -38.1384,6.6667 -54.5,-9.8125 -32.3703,-32.60296 -28.689,-100.26236 7.3438,-135.0625 12.3571,-11.93438 21.4171,-16.74113 33.8124,-17.90625 1.6447,-0.15461 3.2455,-0.22109 4.8126,-0.21875 z m 260.2187,22.5625 c 26.6797,-0.10317 32.2886,0.36602 44.8437,3.875 50.5472,14.1271 79.9077,46.42262 82.875,91.125 1.8256,27.50204 -6.3872,47.4034 -28.2187,68.40625 -11.1421,10.71911 -17.2583,14.95562 -30.6875,21.28125 -19.7631,9.309098 -37.5881,14.30539 -59.8438,16.75 -18.4827,2.03018 -26.0371,1.99147 -41.625,-0.1875 -80.854,-11.30231 -120.8142,-88.98481 -78.2187,-152.03125 14.8485,-21.97755 34.4065,-35.47234 64.2813,-44.34375 14.7396,-4.37699 18.6688,-4.76709 46.5937,-4.875 z m 349.2187,158.96875 c 3.6214,-0.0218 7.4002,1.8922 9.5,5.5625 2.4665,4.311 2.4672,5.28275 0,9.59375 -3.5274,6.16411 -10.9309,7.24573 -16,2.3125 -4.4369,-4.31802 -4.6648,-8.42881 -0.8124,-13.78125 1.7781,-2.4708 4.4958,-3.67057 7.3124,-3.6875 z M -1699.9062,-117 c 8.095,-0.43862 13.8909,10.38989 8.375,17.21875 -4.2511,5.26301 -9.8696,5.46338 -14.9376,0.53125 -3.6699,-3.57151 -4.405,-5.59046 -3.4687,-9.28125 1.4877,-5.86421 2.4384,-6.78513 8.4063,-8.21875 0.5573,-0.13391 1.0852,-0.22076 1.625,-0.25 z m -79.5938,39.84375 c 0.3611,-0.0277 0.715,-0.02115 1.0938,0.03125 13.3677,1.85218 -6.3594,34.35132 -33.75,55.5625 -26.5391,20.5518001 -69.4165,38.41016 -106.75,44.5 -20.6049,3.36105 -67.6913,4.77674 -85.7813,2.5625 -41.6841,-5.10213 -74.6577,-18.7016699 -98.375,-40.53125 -16.4663,-15.1557 -20.8272,-25.75 -10.625,-25.75 2.8094,0 5.7193,1.80904 8.0313,4.96875 1.9998,2.73334 9.5253,8.87787 16.7187,13.65625 36.3626,24.1544601 68.1356,32.81629 119.8125,32.65625 52.4943,-0.16253 97.3365,-12.3902699 135.0938,-36.8125 16.6458,-10.7669 37.8078,-30.27726 45.5937,-42.0625 4.1508,-6.28294 6.4099,-8.58759 8.9375,-8.78125 z m -503.0938,1.5 c 4.2603,-0.0363 10.3126,6.1156 10.3126,10.5 0,3.5116 -7.4267,12.26244 -10.2188,12.03125 -0.7848,-0.0649 -3.2018,-0.92939 -5.3438,-1.9375 -9.3063,-4.37981 -5.193,-20.50482 5.25,-20.59375 z m 86.1876,10.5 c 5.1813,0.1237 10.2187,4.485 10.2187,10.71875 0,8.11998 -11.8946,13.57855 -17.5625,8.0625 -3.0704,-2.98808 -2.6717,-12.85505 0.6562,-16.09375 1.9565,-1.90409 4.3324,-2.74373 6.6876,-2.6875 z m 536.6874,28.25 c 1.6933,-0.11753 3.5113,0.20485 5.375,1.03125 9.8152,4.35216 6.3652,19.53125 -4.4374,19.53125 -3.6685,0 -6.1904,-1.331 -8.2188,-4.34375 -4.9421,-7.34044 -0.057,-15.70944 7.2812,-16.21875 z m -555.75,45 c 8.1249,0 12.7241,12.40494 6.75,18.21875 -3.3359,3.24652 -11.7335,3.62233 -14.7812,0.65625 -5.846,-5.68923 -0.2362,-18.875 8.0312,-18.875 z"
         style="fill:#ffffff"
         inkscape:connector-curvature="0" />
      <path
         inkscape:connector-curvature="0"
         id="path3029"
         d="m -1929.4581,-91.359982 c 26.3537,-5.49752 49.2531,-16.363328 66.7505,-31.673348 33.2631,-29.10475 38.9226,-74.6702 13.8419,-111.44303 -13.0574,-19.14444 -38.0203,-35.34237 -65.5517,-42.53509 -16.5939,-4.33523 -66.0464,-4.34588 -82.517,-0.0178 -32.9859,8.66799 -60.0969,28.87001 -72.2896,53.86735 -29.2982,60.06674 6.7265,121.61302 78.5681,134.229228 12.2169,2.14542 45.6303,0.82012 61.1978,-2.42735 z"
         style="fill:#552200" />
      <path
         inkscape:connector-curvature="0"
         id="path3013"
         d="m -2212.4003,-215.32823 c 13.1083,-7.77882 20.9041,-25.47776 16.7329,-37.98893 -6.2992,-18.89355 -22.4555,-26.43074 -39.0197,-18.20335 -10.1097,5.0215 -16.3865,13.4941 -19.1059,25.78969 -2.4292,10.98362 6.1092,28.20922 15.8919,32.06063 6.785,2.67125 19.6106,1.83735 25.5008,-1.65804 z"
         style="fill:#ffffff" />
      <path
         inkscape:connector-curvature="0"
         id="path3005"
         d="m -1680.3539,-268.31201 c 7.2654,-3.55243 13.5927,-12.03067 16.3114,-21.85639 6.1277,-22.1465 -15.7457,-45.45892 -37.3427,-39.79935 -29.2155,7.65606 -34.5162,45.84502 -8.5314,61.46544 6.9099,4.15378 21.2676,4.2462 29.5627,0.1903 z"
         style="fill:#ffffff" />
      <path
         inkscape:connector-curvature="0"
         id="path3001"
         d="m -2368.5327,-382.04236 c 15.4581,-56.61141 49.0927,-120.20789 88.3693,-167.08927 4.4433,-5.30355 -49.4926,12.73424 -72.2054,24.14771 -17.5643,8.82626 -26.4598,17.67869 -29.9106,29.76597 -4.1448,14.51814 -5.0355,64.48397 -1.5506,86.98915 3.593,23.20335 8.564,44.09313 10.0798,42.35898 0.6411,-0.73345 2.989,-8.0111 5.2175,-16.17254 z"
         style="fill:#162d50;fill-opacity:1" />
      <path
         inkscape:connector-curvature="0"
         id="path2995"
         d="m -1435.3866,-399.8332 c 20.7464,-34.45613 40.4986,-124.8001 33.9734,-155.38943 -1.7196,-8.06144 -3.4669,-11.09137 -9.4082,-16.31513 -20.0124,-17.59538 -70.5191,-28.4195 -123.6606,-26.50176 -28.6707,1.03466 -38.4618,3.07801 -40.1936,8.38822 -3.3956,10.41183 9.7693,54.24137 25.915,86.27844 20.5703,40.81626 49.3178,76.95454 79.0696,99.398 21.0816,15.90297 26.8067,16.59417 34.3044,4.14166 z"
         style="fill:#162d50;fill-opacity:1" />
    </g>
  </g>
</svg>
